<svg width="176" height="30" viewBox="0 0 176 30" fill="none" xmlns="http://www.w3.org/2000/svg">
<g clip-path="url(#clip0_1031_106574)">
<path d="M10 23.3346C14.6024 23.3346 18.3334 19.6037 18.3334 15.0013C18.3334 10.3989 14.6024 6.66797 10 6.66797C5.39765 6.66797 1.66669 10.3989 1.66669 15.0013C1.66669 19.6037 5.39765 23.3346 10 23.3346Z" stroke="#110D59" stroke-width="2" stroke-linecap="round" stroke-linejoin="round"/>
<path d="M11.925 11.668L16.7083 19.9513" stroke="#110D59" stroke-width="2" stroke-linecap="round" stroke-linejoin="round"/>
<path d="M8.07501 11.668H17.6417" stroke="#110D59" stroke-width="2" stroke-linecap="round" stroke-linejoin="round"/>
<path d="M6.15002 14.9982L10.9334 6.71484" stroke="#110D59" stroke-width="2" stroke-linecap="round" stroke-linejoin="round"/>
<path d="M8.07502 18.3341L3.29169 10.0508" stroke="#110D59" stroke-width="2" stroke-linecap="round" stroke-linejoin="round"/>
<path d="M11.925 18.332H2.35834" stroke="#110D59" stroke-width="2" stroke-linecap="round" stroke-linejoin="round"/>
<path d="M13.85 15L9.06665 23.2833" stroke="#110D59" stroke-width="2" stroke-linecap="round" stroke-linejoin="round"/>
</g>
<path d="M42.26 8.04C43.7267 8.04 45.0133 8.32667 46.12 8.9C47.24 9.47333 48.1 10.2933 48.7 11.36C49.3133 12.4133 49.62 13.64 49.62 15.04C49.62 16.44 49.3133 17.6667 48.7 18.72C48.1 19.76 47.24 20.5667 46.12 21.14C45.0133 21.7133 43.7267 22 42.26 22H37.38V8.04H42.26ZM42.16 19.62C43.6267 19.62 44.76 19.22 45.56 18.42C46.36 17.62 46.76 16.4933 46.76 15.04C46.76 13.5867 46.36 12.4533 45.56 11.64C44.76 10.8133 43.6267 10.4 42.16 10.4H40.18V19.62H42.16ZM50.9959 16.42C50.9959 15.3 51.2159 14.3067 51.6559 13.44C52.1093 12.5733 52.7159 11.9067 53.4759 11.44C54.2493 10.9733 55.1093 10.74 56.0559 10.74C56.8826 10.74 57.6026 10.9067 58.2159 11.24C58.8426 11.5733 59.3426 11.9933 59.7159 12.5V10.92H62.5359V22H59.7159V20.38C59.3559 20.9 58.8559 21.3333 58.2159 21.68C57.5893 22.0133 56.8626 22.18 56.0359 22.18C55.1026 22.18 54.2493 21.94 53.4759 21.46C52.7159 20.98 52.1093 20.3067 51.6559 19.44C51.2159 18.56 50.9959 17.5533 50.9959 16.42ZM59.7159 16.46C59.7159 15.78 59.5826 15.2 59.3159 14.72C59.0493 14.2267 58.6893 13.8533 58.2359 13.6C57.7826 13.3333 57.2959 13.2 56.7759 13.2C56.2559 13.2 55.7759 13.3267 55.3359 13.58C54.8959 13.8333 54.5359 14.2067 54.2559 14.7C53.9893 15.18 53.8559 15.7533 53.8559 16.42C53.8559 17.0867 53.9893 17.6733 54.2559 18.18C54.5359 18.6733 54.8959 19.0533 55.3359 19.32C55.7893 19.5867 56.2693 19.72 56.7759 19.72C57.2959 19.72 57.7826 19.5933 58.2359 19.34C58.6893 19.0733 59.0493 18.7 59.3159 18.22C59.5826 17.7267 59.7159 17.14 59.7159 16.46ZM69.5106 22.18C68.604 22.18 67.7906 22.02 67.0706 21.7C66.3506 21.3667 65.7773 20.92 65.3506 20.36C64.9373 19.8 64.7106 19.18 64.6706 18.5H67.4906C67.544 18.9267 67.7506 19.28 68.1106 19.56C68.484 19.84 68.944 19.98 69.4906 19.98C70.024 19.98 70.4373 19.8733 70.7306 19.66C71.0373 19.4467 71.1906 19.1733 71.1906 18.84C71.1906 18.48 71.004 18.2133 70.6306 18.04C70.2706 17.8533 69.6906 17.6533 68.8906 17.44C68.064 17.24 67.384 17.0333 66.8506 16.82C66.3306 16.6067 65.8773 16.28 65.4906 15.84C65.1173 15.4 64.9306 14.8067 64.9306 14.06C64.9306 13.4467 65.104 12.8867 65.4506 12.38C65.8106 11.8733 66.3173 11.4733 66.9706 11.18C67.6373 10.8867 68.4173 10.74 69.3106 10.74C70.6306 10.74 71.684 11.0733 72.4706 11.74C73.2573 12.3933 73.6906 13.28 73.7706 14.4H71.0906C71.0506 13.96 70.864 13.6133 70.5306 13.36C70.2106 13.0933 69.7773 12.96 69.2306 12.96C68.724 12.96 68.3306 13.0533 68.0506 13.24C67.784 13.4267 67.6506 13.6867 67.6506 14.02C67.6506 14.3933 67.8373 14.68 68.2106 14.88C68.584 15.0667 69.164 15.26 69.9506 15.46C70.7506 15.66 71.4106 15.8667 71.9306 16.08C72.4506 16.2933 72.8973 16.6267 73.2706 17.08C73.6573 17.52 73.8573 18.1067 73.8706 18.84C73.8706 19.48 73.6906 20.0533 73.3306 20.56C72.984 21.0667 72.4773 21.4667 71.8106 21.76C71.1573 22.04 70.3906 22.18 69.5106 22.18ZM82.4091 10.76C83.2491 10.76 83.9957 10.9467 84.6491 11.32C85.3024 11.68 85.8091 12.22 86.1691 12.94C86.5424 13.6467 86.7291 14.5 86.7291 15.5V22H83.9291V15.88C83.9291 15 83.7091 14.3267 83.2691 13.86C82.8291 13.38 82.2291 13.14 81.4691 13.14C80.6957 13.14 80.0824 13.38 79.6291 13.86C79.1891 14.3267 78.9691 15 78.9691 15.88V22H76.1691V7.2H78.9691V12.3C79.3291 11.82 79.8091 11.4467 80.4091 11.18C81.0091 10.9 81.6757 10.76 82.4091 10.76ZM95.6317 10.76C96.4717 10.76 97.2184 10.9467 97.8717 11.32C98.5251 11.68 99.0317 12.22 99.3917 12.94C99.7651 13.6467 99.9517 14.5 99.9517 15.5V22H97.1517V15.88C97.1517 15 96.9317 14.3267 96.4917 13.86C96.0517 13.38 95.4517 13.14 94.6917 13.14C93.9184 13.14 93.3051 13.38 92.8517 13.86C92.4117 14.3267 92.1917 15 92.1917 15.88V22H89.3917V7.2H92.1917V12.3C92.5517 11.82 93.0317 11.4467 93.6317 11.18C94.2317 10.9 94.8984 10.76 95.6317 10.76ZM108.854 10.76C109.694 10.76 110.441 10.9467 111.094 11.32C111.748 11.68 112.254 12.22 112.614 12.94C112.988 13.6467 113.174 14.5 113.174 15.5V22H110.374V15.88C110.374 15 110.154 14.3267 109.714 13.86C109.274 13.38 108.674 13.14 107.914 13.14C107.141 13.14 106.528 13.38 106.074 13.86C105.634 14.3267 105.414 15 105.414 15.88V22H102.614V7.2H105.414V12.3C105.774 11.82 106.254 11.4467 106.854 11.18C107.454 10.9 108.121 10.76 108.854 10.76ZM118.637 12.54C118.997 12.0067 119.49 11.5733 120.117 11.24C120.757 10.9067 121.484 10.74 122.297 10.74C123.244 10.74 124.097 10.9733 124.857 11.44C125.63 11.9067 126.237 12.5733 126.677 13.44C127.13 14.2933 127.357 15.2867 127.357 16.42C127.357 17.5533 127.13 18.56 126.677 19.44C126.237 20.3067 125.63 20.98 124.857 21.46C124.097 21.94 123.244 22.18 122.297 22.18C121.47 22.18 120.744 22.02 120.117 21.7C119.504 21.3667 119.01 20.94 118.637 20.42V22H115.837V7.2H118.637V12.54ZM124.497 16.42C124.497 15.7533 124.357 15.18 124.077 14.7C123.81 14.2067 123.45 13.8333 122.997 13.58C122.557 13.3267 122.077 13.2 121.557 13.2C121.05 13.2 120.57 13.3333 120.117 13.6C119.677 13.8533 119.317 14.2267 119.037 14.72C118.77 15.2133 118.637 15.7933 118.637 16.46C118.637 17.1267 118.77 17.7067 119.037 18.2C119.317 18.6933 119.677 19.0733 120.117 19.34C120.57 19.5933 121.05 19.72 121.557 19.72C122.077 19.72 122.557 19.5867 122.997 19.32C123.45 19.0533 123.81 18.6733 124.077 18.18C124.357 17.6867 124.497 17.1 124.497 16.42ZM134.312 22.18C133.245 22.18 132.285 21.9467 131.432 21.48C130.578 21 129.905 20.3267 129.412 19.46C128.932 18.5933 128.692 17.5933 128.692 16.46C128.692 15.3267 128.938 14.3267 129.432 13.46C129.938 12.5933 130.625 11.9267 131.492 11.46C132.358 10.98 133.325 10.74 134.392 10.74C135.458 10.74 136.425 10.98 137.292 11.46C138.158 11.9267 138.838 12.5933 139.332 13.46C139.838 14.3267 140.092 15.3267 140.092 16.46C140.092 17.5933 139.832 18.5933 139.312 19.46C138.805 20.3267 138.112 21 137.232 21.48C136.365 21.9467 135.392 22.18 134.312 22.18ZM134.312 19.74C134.818 19.74 135.292 19.62 135.732 19.38C136.185 19.1267 136.545 18.7533 136.812 18.26C137.078 17.7667 137.212 17.1667 137.212 16.46C137.212 15.4067 136.932 14.6 136.372 14.04C135.825 13.4667 135.152 13.18 134.352 13.18C133.552 13.18 132.878 13.4667 132.332 14.04C131.798 14.6 131.532 15.4067 131.532 16.46C131.532 17.5133 131.792 18.3267 132.312 18.9C132.845 19.46 133.512 19.74 134.312 19.74ZM141.426 16.42C141.426 15.3 141.646 14.3067 142.086 13.44C142.539 12.5733 143.146 11.9067 143.906 11.44C144.679 10.9733 145.539 10.74 146.486 10.74C147.312 10.74 148.032 10.9067 148.646 11.24C149.272 11.5733 149.772 11.9933 150.146 12.5V10.92H152.966V22H150.146V20.38C149.786 20.9 149.286 21.3333 148.646 21.68C148.019 22.0133 147.292 22.18 146.466 22.18C145.532 22.18 144.679 21.94 143.906 21.46C143.146 20.98 142.539 20.3067 142.086 19.44C141.646 18.56 141.426 17.5533 141.426 16.42ZM150.146 16.46C150.146 15.78 150.012 15.2 149.746 14.72C149.479 14.2267 149.119 13.8533 148.666 13.6C148.212 13.3333 147.726 13.2 147.206 13.2C146.686 13.2 146.206 13.3267 145.766 13.58C145.326 13.8333 144.966 14.2067 144.686 14.7C144.419 15.18 144.286 15.7533 144.286 16.42C144.286 17.0867 144.419 17.6733 144.686 18.18C144.966 18.6733 145.326 19.0533 145.766 19.32C146.219 19.5867 146.699 19.72 147.206 19.72C147.726 19.72 148.212 19.5933 148.666 19.34C149.119 19.0733 149.479 18.7 149.746 18.22C150.012 17.7267 150.146 17.14 150.146 16.46ZM158.5 12.64C158.86 12.0533 159.327 11.5933 159.9 11.26C160.487 10.9267 161.154 10.76 161.9 10.76V13.7H161.16C160.28 13.7 159.614 13.9067 159.16 14.32C158.72 14.7333 158.5 15.4533 158.5 16.48V22H155.7V10.92H158.5V12.64ZM163.066 16.42C163.066 15.3 163.286 14.3067 163.726 13.44C164.18 12.5733 164.793 11.9067 165.566 11.44C166.34 10.9733 167.2 10.74 168.146 10.74C168.866 10.74 169.553 10.9 170.206 11.22C170.86 11.5267 171.38 11.94 171.766 12.46V7.2H174.606V22H171.766V20.36C171.42 20.9067 170.933 21.3467 170.306 21.68C169.68 22.0133 168.953 22.18 168.126 22.18C167.193 22.18 166.34 21.94 165.566 21.46C164.793 20.98 164.18 20.3067 163.726 19.44C163.286 18.56 163.066 17.5533 163.066 16.42ZM171.786 16.46C171.786 15.78 171.653 15.2 171.386 14.72C171.12 14.2267 170.76 13.8533 170.306 13.6C169.853 13.3333 169.366 13.2 168.846 13.2C168.326 13.2 167.846 13.3267 167.406 13.58C166.966 13.8333 166.606 14.2067 166.326 14.7C166.06 15.18 165.926 15.7533 165.926 16.42C165.926 17.0867 166.06 17.6733 166.326 18.18C166.606 18.6733 166.966 19.0533 167.406 19.32C167.86 19.5867 168.34 19.72 168.846 19.72C169.366 19.72 169.853 19.5933 170.306 19.34C170.76 19.0733 171.12 18.7 171.386 18.22C171.653 17.7267 171.786 17.14 171.786 16.46Z" fill="#110D59"/>
<defs>
<clipPath id="clip0_1031_106574">
<rect width="20" height="20" fill="white" transform="translate(0 5)"/>
</clipPath>
</defs>
</svg>
