<?xml version="1.0" encoding="utf-8"?>
<!-- Generator: Adobe Illustrator 22.1.0, SVG Export Plug-In . SVG Version: 6.00 Build 0)  -->
<svg version="1.1" id="Layer_1" xmlns="http://www.w3.org/2000/svg" xmlns:xlink="http://www.w3.org/1999/xlink" x="0px" y="0px"
	 viewBox="0 0 20 21" style="enable-background:new 0 0 20 21;" xml:space="preserve">
<style type="text/css">
	.st0{fill:#7E7BB2;}
</style>
<path class="st0" d="M3.8,2.2h2.8c1.2,0,2.1,1,2.1,2.1v2.8c0,1.2-0.9,2.1-2.1,2.1H3.8c-1.2,0-2.1-0.9-2.1-2.1V4.3
	C1.7,3.1,2.6,2.2,3.8,2.2z M3.8,11.7h2.8c1.2,0,2.1,1,2.1,2.1v2.8c0,1.2-0.9,2.1-2.1,2.1H3.8c-1.2,0-2.1-1-2.1-2.1v-2.8
	C1.7,12.7,2.6,11.7,3.8,11.7z M16.2,2.2h-2.8c-1.2,0-2.1,1-2.1,2.1v2.8c0,1.2,0.9,2.1,2.1,2.1h2.8c1.2,0,2.1-0.9,2.1-2.1V4.3
	C18.3,3.1,17.4,2.2,16.2,2.2z M13.4,11.7h2.8c1.2,0,2.1,1,2.1,2.1v2.8c0,1.2-1,2.1-2.1,2.1h-2.8c-1.2,0-2.1-1-2.1-2.1v-2.8
	C11.3,12.7,12.2,11.7,13.4,11.7z"/>
</svg>
